# xmcd
#
# Track frame offsets:
#	150
#	26700
#	46512
#	62014
#	93624
#	106045
#	122238
#	138085
#	152020
#	166600
#	179452
#	197744
#	216095
#	229818
#	246198
#	266723
#	290236
#	315094
#
# Disc length: 4577 seconds
#
# Revision: 0
# Processed by: cddbd v1.5.2PL0 Copyright (c) Steve Scherf et al.
# Submitted via: EasyCDDAExtractor 10.0.3.1
#
DISCID=f511df12
DTITLE=Various Artist - Utopia
DYEAR=2002
DGENRE=Blues
TTITLE0=BUG - White room
TTITLE1=Vincent Absil - Billy
TTITLE2=MARQUEE Club - Sunny afternoon
TTITLE3=Basile Leroux, Luc Bertin and Co - How can a poor man stand such times
TTITLE3=and live ?
TTITLE4=Brand New Cadillac - Brand new cadillac
TTITLE5=Basile Leroux, Luc Bertin and Co - Workin' on the railroad
TTITLE6=Wolfpack - Weary blues from waitin'
TTITLE7=Chris Lancry - Cajun moon
TTITLE8=Brand New Cadillac - Pretty pearly
TTITLE9=Greg Szlapczynski - Who do you love
TTITLE10=Wolfpack - Ohio
TTITLE11=R.M.G. - I can see Arkansas
TTITLE12=Giroux/Mahjun - Ditty what ditty
TTITLE13=Johnny Bracos - Love is a perfect imperfection
TTITLE14=Johnny Bracos - Walkin' the dog
TTITLE15=BUG - Wait
TTITLE16=René Lebhar trio - Messin' with the kid-Bullfrogblues
TTITLE17=Final UTOPIA - Ishall be released
EXTD=
EXTT0=
EXTT1=
EXTT2=
EXTT3=
EXTT4=
EXTT5=
EXTT6=
EXTT7=
EXTT8=
EXTT9=
EXTT10=
EXTT11=
EXTT12=
EXTT13=
EXTT14=
EXTT15=
EXTT16=
EXTT17=
PLAYORDER=
